<?xml version="1.0" encoding="utf-8"?>
<!-- Generator: Adobe Illustrator 18.1.1, SVG Export Plug-In . SVG Version: 6.00 Build 0)  -->
<svg version="1.1" id="Laag_1" xmlns="http://www.w3.org/2000/svg" xmlns:xlink="http://www.w3.org/1999/xlink" x="0px" y="0px"
	 viewBox="0 0 446.2 446.2" enable-background="new 0 0 446.2 446.2" xml:space="preserve">
<path fill="#E2001A" d="M444.6,249.8c1-8.7,1.6-17.6,1.6-26.7c0-7.8-0.4-15.6-1.2-23.2c-11.6,32.9-34,59.7-62.3,77.1
	c30.4-25.8,51.7-62.5,57.6-104.8c-4.4-18.8-11.2-36.7-20-53.3c0.3,7.2,0.2,14.4-0.4,21.7c-3.8,47.3-26.3,88.5-59.7,116.7
	c31.3-30.7,50.6-73.6,50.4-120.9c-0.1-14.7-2.1-28.9-5.7-42.5C364.6,37.1,298.1,0,223.1,0C148,0,81.6,37.1,41.2,93.9
	c-3.6,13.6-5.6,27.8-5.7,42.5c-0.3,47.3,19.1,90.2,50.4,120.9c-33.4-28.2-55.9-69.4-59.7-116.7c-0.6-7.3-0.7-14.6-0.4-21.7
	c-8.8,16.6-15.6,34.5-20,53.3C11.7,214.5,33,251.1,63.5,277c-28.3-17.4-50.7-44.2-62.3-77.1C0.4,207.5,0,215.2,0,223.1
	c0,9,0.6,17.9,1.6,26.7c10.8,21.8,26.2,40.9,44.7,55.9c-15.1-8.3-28.9-19.2-40.6-32c22.9,98.8,111.5,172.5,217.3,172.5
	c105.8,0,194.4-73.7,217.3-172.5c-11.7,12.9-25.5,23.7-40.6,32C418.4,290.6,433.7,271.6,444.6,249.8z M78.5,150.5
	c0-79.9,64.7-144.6,144.6-144.6s144.6,64.7,144.6,144.6c0,30.4-9.4,58.7-25.5,82l-0.3-0.1c-85.5,109.5-217.5-20.5-30-126.5
	c-10-6.5-32-41.5-57-41.5c-16,0-34,10.5-38,19.5L103.4,95.4l122,6.5c13,1,20,7,20,17.5s-17,22.5-28.5,31.5
	c-10.2,8-69.3,57.8-61.6,127.4c1,9.1,3.1,18.5,6.6,28.1c-7.5-6.7-12.9-18.4-16.1-33.6c-4.8-3-9.4-6.4-13.8-9.9
	C99.4,236.4,78.5,195.9,78.5,150.5z"/>
<g>
	<path fill="#FFFFFF" d="M125.2,372.6c5.5,1.4,8.9,1.2,15.2,1.2c4.6,0,12.4-4.7,16.1-14.8l14.3-36.5h28.4l-13,36.1
		c-5.7,15.7-13.2,30.5-43.3,30.5c-8.3,0-22.7-1.4-22.7-1.4L125.2,372.6z"/>
	<path fill="#FFFFFF" d="M230.1,322.4h38.1l7,63.9h-30.2l-1.1-10.6h-28.6l-8.7,10.6h-31.8L230.1,322.4z M242.4,361.7l0.6-18.3
		l-16.3,18.3H242.4z"/>
	<path fill="#FFFFFF" d="M306.8,322.4h30.4l-16.4,50.3H358l-4.6,13.6h-69.5L306.8,322.4z"/>
</g>
</svg>
