<?xml version="1.0" encoding="UTF-8" standalone="no"?>
<!-- Created with Inkscape (http://www.inkscape.org/) -->

<svg
   xmlns:dc="http://purl.org/dc/elements/1.1/"
   xmlns:cc="http://creativecommons.org/ns#"
   xmlns:rdf="http://www.w3.org/1999/02/22-rdf-syntax-ns#"
   xmlns:svg="http://www.w3.org/2000/svg"
   xmlns="http://www.w3.org/2000/svg"
   xmlns:sodipodi="http://sodipodi.sourceforge.net/DTD/sodipodi-0.dtd"
   xmlns:inkscape="http://www.inkscape.org/namespaces/inkscape"
   width="200.42087"
   height="40.997799"
   viewBox="0 0 53.028022 10.847334"
   version="1.1"
   id="svg36254"
   inkscape:version="0.92.0 r15299"
   sodipodi:docname="air serbia.svg">
  <defs
     id="defs36248" />
  <sodipodi:namedview
     id="base"
     pagecolor="#ffffff"
     bordercolor="#666666"
     borderopacity="1.0"
     inkscape:pageopacity="0.0"
     inkscape:pageshadow="2"
     inkscape:zoom="4.4980246"
     inkscape:cx="99.710438"
     inkscape:cy="19.998898"
     inkscape:document-units="mm"
     inkscape:current-layer="layer1"
     showgrid="false"
     fit-margin-top="0"
     fit-margin-left="0"
     fit-margin-right="0"
     fit-margin-bottom="0"
     units="px"
     inkscape:window-width="1280"
     inkscape:window-height="744"
     inkscape:window-x="-4"
     inkscape:window-y="-4"
     inkscape:window-maximized="1" />
  <metadata
     id="metadata36251">
    <rdf:RDF>
      <cc:Work
         rdf:about="">
        <dc:format>image/svg+xml</dc:format>
        <dc:type
           rdf:resource="http://purl.org/dc/dcmitype/StillImage" />
        <dc:title></dc:title>
      </cc:Work>
    </rdf:RDF>
  </metadata>
  <g
     inkscape:label="Layer 1"
     inkscape:groupmode="layer"
     id="layer1"
     transform="translate(-248.78565,-320.16999)">
    <g
       id="g36282">
      <path
         id="path36256"
         d="m 272.95871,327.99182 0.4408,-2.10371 c 0.0878,-0.42201 0.22278,-0.77655 0.40375,-1.06177 0.18151,-0.28522 0.39582,-0.51461 0.64241,-0.6858 a 2.4402521,2.4402521 0 0 1 0.77867,-0.35163 3.3395708,3.3395708 0 0 1 0.85302,-0.10769 c 0.0212,0 0.0479,8e-4 0.0794,8e-4 0.032,5.3e-4 0.30031,10e-4 0.32094,10e-4 0,0 -0.16351,0.1979 -0.27437,0.48736 -0.0839,0.22093 -0.0897,0.66463 -0.0897,0.66463 l -0.45059,-0.003 c -0.33761,-0.002 -0.5797,0.072 -0.75882,0.22172 -0.17966,0.15082 -0.30322,0.38815 -0.37121,0.71253 l -0.46488,2.22435 z m 3.33667,-1.53617 1.00806,0.001 c -0.0397,0.2847 0.0167,0.48419 0.16774,0.5977 0.15584,0.13335 0.40164,0.20029 0.73793,0.20029 0.29792,0 0.53763,-0.0511 0.72019,-0.15611 a 0.73024999,0.73024999 0 0 0 0.3556,-0.45535 c 0.0828,-0.30374 -0.28151,-0.55033 -1.09458,-0.74162 l -0.0246,-0.0138 -0.10742,-0.0286 c -0.4609,-0.10477 -0.7575,-0.21484 -0.89005,-0.32861 -0.16299,-0.1053 -0.25665,-0.25664 -0.27808,-0.45588 -0.0497,-0.17145 -0.0378,-0.3892 0.0352,-0.6551 0.12753,-0.46488 0.39105,-0.83106 0.79084,-1.09591 0.39608,-0.25664 0.90699,-0.38338 1.53114,-0.38259 0.58605,0 1.00066,0.13388 1.24592,0.39953 0.24527,0.29474 0.31301,0.67918 0.20215,1.15384 l -0.5768,-5.3e-4 c -0.22092,-0.001 -0.35136,-0.10054 -0.3929,-0.3003 a 0.49000833,0.49000833 0 0 0 -0.13573,-0.24209 c -0.13917,-0.12303 -0.35746,-0.18521 -0.65538,-0.18521 -0.28813,0 -0.50932,0.0516 -0.66278,0.1561 a 0.72548749,0.72548749 0 0 0 -0.33708,0.44027 c -0.0701,0.25718 0.15664,0.44688 0.67945,0.57097 0.15002,0.0479 0.26273,0.0762 0.33708,0.086 0.1569,0.0574 0.29528,0.10213 0.41646,0.13573 0.12038,0.0339 0.21616,0.0593 0.28786,0.078 0.11907,0.0574 0.2376,0.11457 0.35719,0.17119 0.1606,0.1143 0.26935,0.26141 0.3257,0.44185 0.0505,0.1995 0.0434,0.41752 -0.0212,0.65511 -0.1405,0.5125 -0.42334,0.91176 -0.84693,1.19565 -0.41831,0.26512 -0.94457,0.39794 -1.57904,0.39794 -0.65299,-0.001 -1.10569,-0.13944 -1.35572,-0.41487 -0.2802,-0.27543 -0.35957,-0.68421 -0.24024,-1.22475 m 4.47569,1.52982 1.202,-4.38521 c 0.0389,-0.14287 0.12224,-0.26405 0.25029,-0.36274 0.1278,-0.10054 0.26538,-0.14764 0.40958,-0.14764 l 3.08213,5.3e-4 -0.22966,0.83899 h -2.5945 l -0.28866,1.05278 1.93146,-7.9e-4 -0.0902,0.33046 c -0.0389,0.14235 -0.12223,0.26379 -0.25109,0.36222 -0.12779,0.10027 -0.26511,0.14763 -0.40878,0.14763 l -1.40996,-10e-4 -0.34528,1.25438 2.59503,5.3e-4 -0.25056,0.90964 h -3.60177 z m 4.52861,0.006 1.20306,-4.3905 c 0.0389,-0.14287 0.12223,-0.26326 0.24976,-0.36274 0.12912,-0.0998 0.26776,-0.14949 0.4109,-0.14949 l 1.88542,0.003 c 0.5379,0 0.90567,0.1143 1.10252,0.3421 0.20346,0.23786 0.24342,0.58367 0.11827,1.03955 -0.0828,0.30374 -0.21961,0.55563 -0.40852,0.75486 -0.16722,0.18997 -0.38761,0.32702 -0.66066,0.41275 0.19976,0.0762 0.32252,0.18997 0.36777,0.34131 0.0471,0.14314 0.0339,0.38444 -0.041,0.72708 l -0.13124,0.5834 c -0.0159,0.0574 -0.032,0.11933 -0.0508,0.18547 -0.018,0.0661 -0.0299,0.12833 -0.0362,0.18468 -0.018,0.17092 0.0127,0.28099 0.086,0.32888 h -1.12686 a 0.75485624,0.75485624 0 0 1 -0.004,-0.30189 c 0.0225,-0.15161 0.0413,-0.25585 0.0577,-0.31274 l 0.12938,-0.52652 c 0.0585,-0.28575 0.0564,-0.48895 -0.005,-0.61198 -0.0775,-0.1053 -0.25057,-0.15822 -0.51938,-0.15822 l -1.08082,-5.3e-4 -0.52414,1.91188 H 285.3 Z m 1.78091,-2.76649 1.19618,10e-4 c 0.25902,5.3e-4 0.46566,-0.0519 0.61886,-0.15557 0.15319,-0.10478 0.25955,-0.26565 0.32014,-0.48393 0.0598,-0.21854 0.0408,-0.37967 -0.0545,-0.48418 -0.0841,-0.1143 -0.2421,-0.17145 -0.47228,-0.17145 l -1.25333,-10e-4 z m 3.12711,2.76649 1.202,-4.386 c 0.0386,-0.14208 0.12224,-0.26326 0.25029,-0.3638 0.12833,-0.0992 0.26829,-0.15187 0.41196,-0.15187 h 1.8116 c 0.50985,7.9e-4 0.86995,0.11033 1.08135,0.31908 0.20717,0.22834 0.25744,0.53711 0.15029,0.92684 -0.0683,0.24633 -0.17754,0.45508 -0.33047,0.626 a 1.6330083,1.6330083 0 0 1 -0.55165,0.38365 c 0.22092,0.10477 0.37227,0.25241 0.45482,0.44265 0.0751,0.17965 0.0728,0.41724 -0.007,0.7112 -0.12938,0.47439 -0.38497,0.84402 -0.76544,1.11045 -0.38735,0.25638 -0.86942,0.38127 -1.44569,0.38127 z m 1.80366,-3.00329 1.16681,5.3e-4 c 0.24898,0 0.44371,-0.0429 0.58235,-0.12726 0.13864,-0.086 0.2331,-0.21802 0.28231,-0.39847 0.0497,-0.18044 0.0283,-0.31379 -0.064,-0.39952 -0.0751,-0.0757 -0.25188,-0.1143 -0.53022,-0.1143 l -1.15332,-7.9e-4 z m -0.58182,2.12064 1.20994,0.002 c 0.26961,0 0.49027,-0.0521 0.66252,-0.15664 0.16034,-0.0945 0.27225,-0.25638 0.33443,-0.48445 0.0622,-0.22754 0.0405,-0.39343 -0.0648,-0.49847 -0.0992,-0.0947 -0.29739,-0.14261 -0.59452,-0.14261 l -1.19645,-0.001 z m 3.77322,0.88265 1.20068,-4.38203 c 0.0392,-0.14288 0.12303,-0.26326 0.25136,-0.36275 0.12753,-0.0997 0.2704,-0.15689 0.4146,-0.15689 h 0.50033 l -1.34356,4.90193 z m -22.4917,-4.02881 c 0.023,-0.13812 -0.004,-0.25956 -0.082,-0.3609 -0.0826,-0.11006 -0.19738,-0.16536 -0.34581,-0.16642 l -0.56806,-0.004 -0.23892,1.134 a 25.234106,25.234106 0 0 0 1.23481,-0.60245 m -0.18706,0.87312 a 14.558433,14.558433 0 0 1 -1.2057,0.47652 l -0.56356,2.6789 h 1.1086 l 0.67019,-3.18188 z m 27.86619,1.32239 h -1.27344 l 1.25994,-2.07566 0.13441,2.21218 c 0.29739,-0.0378 0.6649,0.11324 1.01177,0.007 l -0.30163,-3.21231 h -0.79481 c -0.24024,0 -0.44476,0.11853 -0.59081,0.33734 l -2.89534,4.5646 h 1.08347 l 0.5977,-1.00304 1.92405,-10e-4 0.0503,1.00383 h 1.08558 l -0.18177,-1.94019 c -0.71543,0.12727 -1.10939,0.10716 -1.10939,0.10716 m -31.84155,0 h -1.27397 l 1.26021,-2.07566 0.1016,1.73249 c 0.29792,-0.0368 0.63103,-0.11827 0.97843,-0.22463 l -0.23521,-2.50137 h -0.79561 c -0.24024,0 -0.44423,0.11853 -0.59002,0.33735 l -2.89507,4.56485 h 1.08321 l 0.59769,-1.00303 1.92379,-10e-4 0.0519,1.00383 h 1.08453 l -0.18203,-1.94019 c -0.7157,0.12753 -1.1094,0.10742 -1.1094,0.10742 m -13.26727,1.50415 0.68633,0.79349 0.4408,-0.50959 -0.87154,-1.00912 -0.44027,-0.50932 -0.40825,-0.47757 -0.4056,0.53922 0.45931,0.53366 -7.9e-4,10e-4 z"
         inkscape:connector-curvature="0"
         style="fill:#0f2d53;stroke-width:0.26458332" />
      <path
         id="path36258"
         d="m 264.08353,323.81457 c -0.62415,-0.61251 -1.28799,-0.90884 -1.97247,-0.88079 -0.54425,0.0225 -0.98795,0.2495 -1.28772,0.45958 -0.0122,0.008 -0.0228,0.0159 -0.0339,0.0243 l -0.0111,0.008 c -0.0381,0.0272 -0.0741,0.0545 -0.1069,0.081 l -0.4736,-0.51329 c -0.11589,-0.13626 -0.29289,-0.35534 -0.3384,-0.48128 -0.0347,-0.0976 -0.0429,-0.19738 -0.0537,-0.25479 -0.0394,-0.20294 -0.0616,-0.54002 -0.0616,-0.54002 0,0 0,-0.0804 -0.0381,-0.17145 l -0.0471,-0.11747 c 0,0 0.3945,-0.17383 0.67681,-0.15981 l 0.16933,0.2069 0.006,-0.20505 v -0.29686 c 0,0 -0.0183,-0.15928 -0.16934,-0.27967 -0.11244,-0.0889 -0.16404,-0.0968 -0.30294,-0.11747 -0.17357,-0.0249 -0.20532,0.023 -0.33576,-0.0987 l -0.11933,-0.17542 -0.73739,0.003 -0.28866,0.10769 c 0,0 -0.15902,0.0381 -0.2667,0.30876 l -0.21987,0.69559 c 0,0 -0.0601,0.23019 -0.0725,0.57812 -0.0135,0.34925 -0.007,0.0122 -0.007,0.0122 0,0 -0.0156,0.5207 -0.0775,0.67627 l -0.11906,0.41037 c -0.17145,0.40852 -0.34581,0.61013 -0.34952,0.61437 l -0.66252,0.76755 h 5.3e-4 l -0.18468,0.21431 -0.18467,-0.21431 0.003,-0.002 -0.40666,-0.4662 -0.058,-0.0661 h -5.3e-4 l -0.2032,-0.2331 c -0.004,-0.005 -0.18812,-0.21749 -0.3638,-0.64902 l -0.10927,-0.37545 c -0.0619,-0.15557 -0.0775,-0.67627 -0.0775,-0.67627 0,0 0.006,0.33708 -0.007,-0.0122 -0.0127,-0.34793 -0.0725,-0.57812 -0.0725,-0.57812 l -0.21987,-0.69559 c -0.10716,-0.27067 -0.26644,-0.30877 -0.26644,-0.30877 l -0.28945,-0.10768 -0.7374,-0.003 -0.11906,0.17515 c -0.12991,0.12171 -0.16245,0.0738 -0.33628,0.0987 -0.13838,0.0206 -0.1905,0.0286 -0.30269,0.11748 -0.15107,0.12038 -0.16959,0.27966 -0.16959,0.27966 v 0.29713 l 0.006,0.20505 0.16933,-0.2069 c 0.28231,-0.014 0.67707,0.15981 0.67707,0.15981 l -0.0476,0.11747 c -0.0381,0.0913 -0.0381,0.17145 -0.0381,0.17145 0,0 -0.0217,0.33708 -0.0616,0.54002 -0.0114,0.0574 -0.0185,0.15689 -0.0537,0.25479 -0.0606,0.1696 -0.36115,0.50853 -0.42862,0.58367 l -0.37941,0.41063 c -0.29078,-0.23415 -0.79402,-0.54715 -1.43828,-0.57335 -0.68421,-0.0283 -1.34884,0.26829 -1.97273,0.8808 l -0.19235,0.18891 0.14419,0.22754 c 0.0212,0.0344 0.5342,0.82815 1.45389,1.00674 0.59637,0.11563 1.24566,-0.0654 1.86161,-0.50667 l -0.44821,-0.50853 c -0.45825,0.32861 -0.87339,0.43815 -1.28031,0.36195 -0.38418,-0.0733 -0.67575,-0.31433 -0.84852,-0.49583 0.41381,-0.34026 0.83264,-0.5043 1.24909,-0.48922 0.72893,0.0267 1.24037,0.59981 1.24487,0.60405 l 1.08029,1.25121 0.43974,-0.51091 -0.82629,-0.95647 0.96599,-1.20703 0.39423,-0.49106 c 0.0923,0.48604 0.53419,1.3245 0.72337,1.61713 l -1.07288,1.25069 -0.42837,0.499 h -5.2e-4 l -0.006,0.008 -0.005,0.005 h 5.3e-4 l -0.45799,0.53446 c -0.23919,0.24845 -1.07209,1.07474 -2.04841,1.60073 0,0 0.30613,0.21061 0.70882,0.20294 0.24157,-0.003 0.51806,-0.0847 0.78555,-0.33735 0.10927,-0.10398 0.26855,-0.24606 0.42439,-0.39899 0,0 -0.073,0.17939 0.10107,0.50324 0.13388,0.24897 0.36857,0.39661 0.6858,0.40878 0.4961,0.0183 0.85302,-0.24236 1.10146,-0.54054 l -0.35613,-0.3937 c 0,0 -0.32279,0.45852 -0.7149,0.17833 -0.14393,-0.13547 -0.13282,-0.36434 -0.13282,-0.36434 0,0 -0.003,-0.0765 0.0717,-0.23706 0.26696,-0.45403 0.99827,-1.40891 1.43219,-1.96453 l 0.33443,-0.42387 0.47652,0.55034 0.001,-10e-4 0.18759,0.21723 -8e-4,10e-4 0.0106,0.0122 -0.83528,1.03584 0.37994,0.42545 0.88265,-0.96493 0.002,0.002 0.002,-0.002 1.07871,1.19935 -0.001,0.001 0.44688,0.50218 v -7.9e-4 l 0.15928,0.16986 0.11033,0.12303 c 0.24553,0.26961 0.58473,0.4916 1.04484,0.47467 0.31776,-0.0122 0.55139,-0.15981 0.68553,-0.40879 0.17463,-0.32464 0.10108,-0.50323 0.10108,-0.50323 0.15636,0.15293 0.31564,0.29501 0.42492,0.39899 0.71067,0.67283 1.49383,0.13467 1.49383,0.13467 -0.97657,-0.52599 -1.80922,-1.35202 -2.04893,-1.60073 l -0.26008,-0.30453 -0.54452,0.61066 c 0.26459,0.36168 0.25109,0.5535 0.25109,0.5535 0,0 0.0111,0.22887 -0.13255,0.36434 -0.39053,0.28416 -0.73607,-0.204 -0.73607,-0.204 l -1.08321,-1.31551 -0.006,-0.006 -0.55588,-0.68607 0.0106,-0.0122 -0.001,-7.9e-4 0.41248,-0.47757 -5.3e-4,-5.3e-4 0.24897,-0.28708 0.10928,0.13812 0.70776,0.95726 0.49768,-0.59161 -0.80989,-0.94456 -10e-4,0.003 -0.0796,-0.0926 c 0.18891,-0.29289 0.63103,-1.13135 0.72284,-1.61713 l 0.39396,0.49107 0.96573,1.20703 -0.19791,0.22886 h 5.3e-4 l -0.812,0.94086 -0.70168,0.81201 -0.21087,0.24394 0.4408,0.50906 0.3503,-0.40508 0.0362,-0.0423 0.52599,-0.60775 0.30666,-0.35533 0.95726,-1.10808 c 0.004,-0.004 0.51567,-0.57706 1.24433,-0.60404 0.41619,-0.0151 0.83476,0.14896 1.24884,0.48921 -0.17198,0.18151 -0.46461,0.42254 -0.84773,0.49583 -0.40719,0.0762 -0.82629,-0.0362 -1.28508,-0.36565 l -0.43683,0.508 c 0.61595,0.44132 1.25863,0.62653 1.8542,0.51091 0.92049,-0.1786 1.43325,-0.97235 1.45442,-1.00674 l 0.1442,-0.22754 z m -6.85826,5.05487 -0.45191,0.53313 0.0511,0.0603 -10e-4,5.3e-4 0.27437,0.31776 c 0.1442,0.17674 0.54055,0.63368 0.60167,1.10384 0,0 0.39158,-0.53895 0.0937,-1.2954 5.3e-4,0 -0.0437,-0.19923 -0.56753,-0.72019"
         inkscape:connector-curvature="0"
         style="fill:#0f2d53;stroke-width:0.26458332" />
      <path
         id="path36260"
         d="m 256.86781,327.85026 -0.71172,0.82339 c -0.71597,0.66754 -0.771,0.91598 -0.771,0.91598 -0.29766,0.75724 0.0939,1.2954 0.0939,1.2954 0.0608,-0.46963 0.45693,-0.92657 0.60139,-1.10225 l 0.27464,-0.31882 -0.001,-10e-4 0.98372,-1.13824 7.9e-4,8e-4 0.58235,-0.6739 -0.43497,-0.51699 z"
         inkscape:connector-curvature="0"
         style="fill:#0f2d53;stroke-width:0.26458332" />
    </g>
  </g>
</svg>
